<svg width="22" height="24" viewBox="0 0 22 24" fill="none" xmlns="http://www.w3.org/2000/svg">
<path d="M9.93474 22.9359C10.2777 23.1191 10.7082 23.1179 11.0512 22.9348C20.3986 17.9134 21.0624 8.10294 21.0542 5.31344C21.0534 5.08925 20.9871 4.87017 20.8636 4.68305C20.7401 4.49594 20.5647 4.3489 20.3589 4.25994L10.9672 0.0996104C10.8178 0.0337282 10.6562 -0.000200019 10.4929 8.87051e-07C10.3295 0.000201793 10.168 0.0345273 10.0187 0.100777L0.69241 4.26111C0.489639 4.35011 0.316728 4.49553 0.194275 4.68003C0.0718226 4.86454 0.00499129 5.08036 0.00174318 5.30178C-0.0379235 8.07728 0.52091 17.9088 9.93474 22.9359ZM6.65174 9.56478L9.32691 12.2399L14.3354 7.23144L15.9851 8.88111L9.32691 15.5393L5.00208 11.2144L6.65174 9.56478V9.56478Z" fill="#2CDF7E"/>
</svg>
