<svg width="42" height="42" viewBox="0 0 42 42" fill="none" xmlns="http://www.w3.org/2000/svg">
<circle cx="21" cy="21" r="21" fill="#4A58A7"/>
<path d="M20.6647 17.2018C19.8472 17.2018 19.0481 17.4442 18.3684 17.8984C17.6886 18.3526 17.1589 18.9981 16.846 19.7534C16.5332 20.5086 16.4513 21.3397 16.6108 22.1415C16.7703 22.9433 17.1639 23.6798 17.742 24.2578C18.3201 24.8359 19.0566 25.2296 19.8583 25.389C20.6601 25.5485 21.4912 25.4667 22.2465 25.1538C23.0017 24.841 23.6473 24.3112 24.1015 23.6315C24.5556 22.9518 24.798 22.1526 24.798 21.3351C24.798 20.7923 24.6911 20.2548 24.4834 19.7534C24.2757 19.2519 23.9712 18.7962 23.5874 18.4124C23.2036 18.0286 22.748 17.7241 22.2465 17.5164C21.745 17.3087 21.2075 17.2018 20.6647 17.2018ZM32.9814 26.4518C32.9279 27.4803 32.7084 28.4934 32.3314 29.4518C32.0078 30.2513 31.5268 30.9775 30.917 31.5874C30.3071 32.1972 29.5809 32.6782 28.7814 33.0018C27.8139 33.3578 26.7952 33.5548 25.7647 33.5851H15.5647C14.5343 33.5548 13.5155 33.3578 12.548 33.0018C11.7216 32.6947 10.9752 32.2047 10.3647 31.5685C9.76082 30.9705 9.29445 30.2482 8.99805 29.4518C8.64064 28.4853 8.44906 27.4654 8.43138 26.4351V21.3351V16.2351C8.44906 15.2048 8.64064 14.1849 8.99805 13.2185C9.30518 12.392 9.79517 11.6456 10.4314 11.0351C11.0319 10.4345 11.7535 9.96861 12.548 9.66846C13.5155 9.31247 14.5343 9.11547 15.5647 9.08512H25.7647C26.7952 9.11547 27.8139 9.31247 28.7814 9.66846C29.6079 9.97559 30.3543 10.4656 30.9647 11.1018C31.5686 11.6997 32.035 12.422 32.3314 13.2185C32.6874 14.1859 32.8844 15.2047 32.9147 16.2351V21.3351C32.9147 24.7685 33.0314 25.1185 32.9814 26.4351V26.4518ZM30.3147 14.0518C30.1163 13.5134 29.8034 13.0245 29.3977 12.6188C28.992 12.2131 28.5031 11.9002 27.9647 11.7018C27.2255 11.4456 26.447 11.3214 25.6647 11.3351H15.6647C14.8785 11.3428 14.0998 11.4895 13.3647 11.7685C12.8346 11.9579 12.3509 12.258 11.9457 12.6488C11.5405 13.0396 11.2231 13.5122 11.0147 14.0351C10.7727 14.7774 10.6544 15.5544 10.6647 16.3351V26.3351C10.6812 27.1205 10.8277 27.8976 11.098 28.6351C11.2965 29.1735 11.6094 29.6624 12.0151 30.0681C12.4208 30.4738 12.9097 30.7867 13.448 30.9851C14.1592 31.2466 14.9075 31.3929 15.6647 31.4185H25.6647C26.4509 31.4108 27.2296 31.2641 27.9647 30.9851C28.5031 30.7867 28.992 30.4738 29.3977 30.0681C29.8034 29.6624 30.1163 29.1735 30.3147 28.6351C30.5937 27.9 30.7404 27.1213 30.748 26.3351V21.3351V16.3351C30.7485 15.5481 30.6016 14.768 30.3147 14.0351V14.0518ZM20.6647 27.7018C19.8294 27.7018 19.0023 27.537 18.2308 27.2168C17.4593 26.8967 16.7586 26.4275 16.1687 25.836C15.5788 25.2446 15.1114 24.5426 14.7933 23.7703C14.4752 22.9979 14.3125 22.1704 14.3147 21.3351C14.3147 20.0752 14.6885 18.8436 15.3889 17.7963C16.0892 16.7489 17.0845 15.9329 18.2488 15.4515C19.4132 14.9701 20.6941 14.845 21.9296 15.092C23.1651 15.3391 24.2995 15.9471 25.1892 16.8391C26.0789 17.7312 26.684 18.8672 26.9277 20.1033C27.1715 21.3394 27.0431 22.6201 26.5586 23.7831C26.0742 24.9462 25.2556 25.9394 24.2064 26.6369C23.1572 27.3345 21.9246 27.7051 20.6647 27.7018ZM27.3314 16.2185C26.963 16.1795 26.622 16.0055 26.3742 15.7301C26.1264 15.4547 25.9893 15.0973 25.9893 14.7268C25.9893 14.3563 26.1264 13.9989 26.3742 13.7235C26.622 13.4481 26.963 13.2741 27.3314 13.2351C27.6998 13.2741 28.0408 13.4481 28.2886 13.7235C28.5364 13.9989 28.6735 14.3563 28.6735 14.7268C28.6735 15.0973 28.5364 15.4547 28.2886 15.7301C28.0408 16.0055 27.6998 16.1795 27.3314 16.2185Z" fill="white"/>
</svg>
