<svg width="20" height="16" viewBox="0 0 20 16" fill="none" xmlns="http://www.w3.org/2000/svg">
<path d="M0.403015 3.06085L9.99941 7.85845L19.5958 3.06085C19.5603 2.44938 19.2923 1.87463 18.8468 1.45432C18.4013 1.03401 17.8119 0.799937 17.1994 0.800049H2.79941C2.18692 0.799937 1.59755 1.03401 1.15203 1.45432C0.706505 1.87463 0.43854 2.44938 0.403015 3.06085Z" fill="#4A58A7"/>
<path d="M19.6 5.74158L10 10.5416L0.400024 5.74158V12.8C0.400024 13.4365 0.652881 14.0469 1.10297 14.497C1.55306 14.9471 2.1635 15.2 2.80002 15.2H17.2C17.8365 15.2 18.447 14.9471 18.8971 14.497C19.3472 14.0469 19.6 13.4365 19.6 12.8V5.74158Z" fill="#4A58A7"/>
</svg>
