<svg width="10" height="10" viewBox="0 0 10 10" fill="none" xmlns="http://www.w3.org/2000/svg">
<path d="M4.73604 1.02141C4.81919 0.765494 5.18125 0.765494 5.26441 1.02141L6.01365 3.32736C6.05084 3.44181 6.1575 3.5193 6.27784 3.5193L8.70246 3.5193C8.97155 3.5193 9.08343 3.86364 8.86573 4.02181L6.90417 5.44696C6.80681 5.5177 6.76608 5.64308 6.80326 5.75753L7.55251 8.06348C7.63566 8.3194 7.34275 8.53221 7.12506 8.37405L5.1635 6.94889C5.06614 6.87816 4.93431 6.87815 4.83695 6.94889L2.87539 8.37404C2.65769 8.53221 2.36478 8.3194 2.44793 8.06348L3.19718 5.75753C3.23437 5.64308 3.19363 5.5177 3.09628 5.44696L1.13472 4.02181C0.917019 3.86364 1.0289 3.5193 1.29799 3.5193L3.72261 3.5193C3.84295 3.5193 3.94961 3.44181 3.98679 3.32736L4.73604 1.02141Z" fill="#FFCC47"/>
</svg>
