<svg width="38" height="38" viewBox="0 0 38 38" fill="none" xmlns="http://www.w3.org/2000/svg">
<path d="M19 0.625C8.85273 0.625 0.625 8.85273 0.625 19C0.625 29.1473 8.85273 37.375 19 37.375C29.1473 37.375 37.375 29.1473 37.375 19C37.375 8.85273 29.1473 0.625 19 0.625ZM27.8307 14.476C27.843 14.6688 27.843 14.8697 27.843 15.0666C27.843 21.0877 23.2574 28.0234 14.8779 28.0234C12.2939 28.0234 9.89863 27.2729 7.88066 25.9809C8.2498 26.0219 8.60254 26.0383 8.97988 26.0383C11.1127 26.0383 13.0732 25.3164 14.6359 24.0941C12.6344 24.0531 10.9527 22.7406 10.3785 20.9359C11.0799 21.0385 11.7115 21.0385 12.4334 20.8539C11.4028 20.6445 10.4764 20.0848 9.81175 19.2698C9.14705 18.4548 8.785 17.4349 8.78711 16.3832V16.3258C9.39004 16.6662 10.0996 16.8754 10.842 16.9041C10.2179 16.4882 9.7061 15.9247 9.35194 15.2636C8.99778 14.6025 8.81223 13.8642 8.81172 13.1143C8.81172 12.2652 9.0332 11.49 9.43106 10.8174C10.575 12.2256 12.0024 13.3773 13.6207 14.1978C15.2389 15.0182 17.0116 15.4889 18.8236 15.5793C18.1797 12.4826 20.493 9.97656 23.2738 9.97656C24.5863 9.97656 25.7676 10.5262 26.6002 11.4121C27.6297 11.2193 28.6141 10.8338 29.4918 10.317C29.1514 11.3711 28.4377 12.2611 27.4902 12.823C28.409 12.7246 29.2949 12.4703 30.1152 12.1135C29.4959 13.024 28.7207 13.832 27.8307 14.476Z" fill="#4A58A7"/>
</svg>
