<svg width="181" height="38" viewBox="0 0 181 38" fill="none" xmlns="http://www.w3.org/2000/svg">
<path d="M10.4766 33.9062L17.2734 2.875H21.3281L23.5312 5.52344L16.2891 37H11.8125L10.4766 33.9062ZM8.67188 2.875L14.4141 34.1406L12.9375 37H7.75781L0.515625 2.875H8.67188ZM27.2578 33.9766L32.9531 2.875H41.0859L33.8438 37H28.6875L27.2578 33.9766ZM24.2578 2.875L31.2188 34.0938L29.8125 37H25.3359L17.9297 5.47656L20.2266 2.875H24.2578ZM55.4766 37.4688C53.4141 37.4688 51.5703 37.1484 49.9453 36.5078C48.3203 35.8516 46.9453 34.9531 45.8203 33.8125C44.7109 32.6719 43.8594 31.3594 43.2656 29.875C42.6875 28.3906 42.3984 26.8203 42.3984 25.1641V24.2734C42.3984 22.4141 42.6562 20.6953 43.1719 19.1172C43.6875 17.5234 44.4531 16.1328 45.4688 14.9453C46.4844 13.7578 47.7578 12.8359 49.2891 12.1797C50.8203 11.5078 52.6016 11.1719 54.6328 11.1719C56.4297 11.1719 58.0391 11.4609 59.4609 12.0391C60.8828 12.6172 62.0859 13.4453 63.0703 14.5234C64.0703 15.6016 64.8281 16.9062 65.3438 18.4375C65.875 19.9688 66.1406 21.6875 66.1406 23.5938V26.8047H45.4219V21.8594H58.4297V21.25C58.4453 20.4062 58.2969 19.6875 57.9844 19.0938C57.6875 18.5 57.25 18.0469 56.6719 17.7344C56.0938 17.4219 55.3906 17.2656 54.5625 17.2656C53.7031 17.2656 52.9922 17.4531 52.4297 17.8281C51.8828 18.2031 51.4531 18.7188 51.1406 19.375C50.8438 20.0156 50.6328 20.7578 50.5078 21.6016C50.3828 22.4453 50.3203 23.3359 50.3203 24.2734V25.1641C50.3203 26.1016 50.4453 26.9531 50.6953 27.7188C50.9609 28.4844 51.3359 29.1406 51.8203 29.6875C52.3203 30.2188 52.9141 30.6328 53.6016 30.9297C54.3047 31.2266 55.1016 31.375 55.9922 31.375C57.0703 31.375 58.1328 31.1719 59.1797 30.7656C60.2266 30.3594 61.125 29.6875 61.875 28.75L65.4609 33.0156C64.9453 33.75 64.2109 34.4609 63.2578 35.1484C62.3203 35.8359 61.1953 36.3984 59.8828 36.8359C58.5703 37.2578 57.1016 37.4688 55.4766 37.4688Z" fill="#282828"/>
<path d="M77.6016 33.9062L84.3984 2.875H88.4531L90.6562 5.52344L83.4141 37H78.9375L77.6016 33.9062ZM75.7969 2.875L81.5391 34.1406L80.0625 37H74.8828L67.6406 2.875H75.7969ZM94.3828 33.9766L100.078 2.875H108.211L100.969 37H95.8125L94.3828 33.9766ZM91.3828 2.875L98.3438 34.0938L96.9375 37H92.4609L85.0547 5.47656L87.3516 2.875H91.3828ZM109.336 24.5781V24.0859C109.336 22.2266 109.602 20.5156 110.133 18.9531C110.664 17.375 111.445 16.0078 112.477 14.8516C113.508 13.6953 114.781 12.7969 116.297 12.1562C117.812 11.5 119.562 11.1719 121.547 11.1719C123.547 11.1719 125.305 11.5 126.82 12.1562C128.352 12.7969 129.633 13.6953 130.664 14.8516C131.695 16.0078 132.477 17.375 133.008 18.9531C133.539 20.5156 133.805 22.2266 133.805 24.0859V24.5781C133.805 26.4219 133.539 28.1328 133.008 29.7109C132.477 31.2734 131.695 32.6406 130.664 33.8125C129.633 34.9688 128.359 35.8672 126.844 36.5078C125.328 37.1484 123.578 37.4688 121.594 37.4688C119.609 37.4688 117.852 37.1484 116.32 36.5078C114.789 35.8672 113.508 34.9688 112.477 33.8125C111.445 32.6406 110.664 31.2734 110.133 29.7109C109.602 28.1328 109.336 26.4219 109.336 24.5781ZM117.234 24.0859V24.5781C117.234 25.5312 117.305 26.4219 117.445 27.25C117.586 28.0781 117.82 28.8047 118.148 29.4297C118.477 30.0391 118.922 30.5156 119.484 30.8594C120.047 31.2031 120.75 31.375 121.594 31.375C122.422 31.375 123.109 31.2031 123.656 30.8594C124.219 30.5156 124.664 30.0391 124.992 29.4297C125.32 28.8047 125.555 28.0781 125.695 27.25C125.836 26.4219 125.906 25.5312 125.906 24.5781V24.0859C125.906 23.1641 125.836 22.2969 125.695 21.4844C125.555 20.6562 125.32 19.9297 124.992 19.3047C124.664 18.6641 124.219 18.1641 123.656 17.8047C123.094 17.4453 122.391 17.2656 121.547 17.2656C120.719 17.2656 120.023 17.4453 119.461 17.8047C118.914 18.1641 118.477 18.6641 118.148 19.3047C117.82 19.9297 117.586 20.6562 117.445 21.4844C117.305 22.2969 117.234 23.1641 117.234 24.0859ZM145.289 17.9219V37H137.391V11.6406H144.773L145.289 17.9219ZM152.789 11.4531L152.648 18.7891C152.336 18.7578 151.914 18.7188 151.383 18.6719C150.852 18.625 150.406 18.6016 150.047 18.6016C149.125 18.6016 148.328 18.7109 147.656 18.9297C147 19.1328 146.453 19.4453 146.016 19.8672C145.594 20.2734 145.281 20.7891 145.078 21.4141C144.891 22.0391 144.805 22.7656 144.82 23.5938L143.391 22.6562C143.391 20.9531 143.555 19.4062 143.883 18.0156C144.227 16.6094 144.711 15.3984 145.336 14.3828C145.961 13.3516 146.719 12.5625 147.609 12.0156C148.5 11.4531 149.5 11.1719 150.609 11.1719C151 11.1719 151.383 11.1953 151.758 11.2422C152.148 11.2891 152.492 11.3594 152.789 11.4531ZM163.477 0.976562V37H155.578V0.976562H163.477ZM179.695 11.6406L168.68 24.5547L162.914 30.3203L159.469 25.3047L164.273 19.0469L170.227 11.6406H179.695ZM171.234 37L164.461 25.4453L170.297 21.2969L180.281 37H171.234Z" fill="#5C6BC0"/>
</svg>
