<svg width="35" height="35" viewBox="0 0 35 35" fill="none" xmlns="http://www.w3.org/2000/svg">
<path d="M35 21.2917C35 22.1667 33.25 22.75 31.2083 23.0417C29.8958 20.5625 27.2708 18.6667 24.2083 17.3542C24.5 16.9167 24.7917 16.625 25.0833 16.1875H26.25C30.7708 16.0417 35 18.8125 35 21.2917ZM9.91667 16.0417H8.75C4.22917 16.0417 0 18.8125 0 21.2917C0 22.1667 1.75 22.75 3.79167 23.0417C5.10417 20.5625 7.72917 18.6667 10.7917 17.3542L9.91667 16.0417ZM17.5 17.5C20.7083 17.5 23.3333 14.875 23.3333 11.6667C23.3333 8.45837 20.7083 5.83337 17.5 5.83337C14.2917 5.83337 11.6667 8.45837 11.6667 11.6667C11.6667 14.875 14.2917 17.5 17.5 17.5ZM17.5 18.9584C11.5208 18.9584 5.83333 22.75 5.83333 26.25C5.83333 29.1667 17.5 29.1667 17.5 29.1667C17.5 29.1667 29.1667 29.1667 29.1667 26.25C29.1667 22.75 23.4792 18.9584 17.5 18.9584ZM25.8125 14.5834H26.25C28.7292 14.5834 30.625 12.6875 30.625 10.2084C30.625 7.72921 28.7292 5.83337 26.25 5.83337C25.5208 5.83337 24.9375 5.97921 24.3542 6.27087C25.5208 7.72921 26.25 9.62504 26.25 11.6667C26.25 12.6875 26.1042 13.7084 25.8125 14.5834ZM8.75 14.5834H9.1875C8.89583 13.7084 8.75 12.6875 8.75 11.6667C8.75 9.62504 9.47917 7.72921 10.6458 6.27087C10.0625 5.97921 9.47917 5.83337 8.75 5.83337C6.27083 5.83337 4.375 7.72921 4.375 10.2084C4.375 12.6875 6.27083 14.5834 8.75 14.5834Z" fill="#4A58A7"/>
</svg>
