<svg width="31" height="31" viewBox="0 0 31 31" fill="none" xmlns="http://www.w3.org/2000/svg">
<path d="M18.7679 1.87292L17.3729 3.26792L19.4396 5.33459C19.7238 5.65751 19.8658 6.03209 19.8658 6.45834C19.8658 6.88459 19.7238 7.28501 19.4396 7.56917L14.8542 12.2321L16.1458 13.6271L20.8346 8.96417C21.5192 8.20209 21.855 7.36251 21.855 6.45834C21.855 5.55417 21.5192 4.70167 20.8346 3.93959L18.7679 1.87292ZM13.6271 4.48209L12.2321 5.87709L13.02 6.60043C13.3042 6.88459 13.4463 7.27209 13.4463 7.75001C13.4463 8.22793 13.3042 8.61542 13.02 8.89959L12.2321 9.62293L13.6271 11.0179L14.3504 10.23C15.035 9.46793 15.3838 8.64126 15.3838 7.75001C15.3838 6.82001 15.035 5.98043 14.3504 5.20543L13.6271 4.48209ZM27.125 6.53584C26.2338 6.53584 25.4071 6.88459 24.645 7.56917L17.3729 14.8542L18.7679 16.1458L25.9754 8.96417C26.2983 8.64126 26.6858 8.47334 27.125 8.47334C27.5642 8.47334 27.9517 8.64126 28.2746 8.96417L29.0625 9.75209L30.3929 8.35709L29.6696 7.56917C28.9075 6.88459 28.055 6.53584 27.125 6.53584ZM9.04168 10.3333L2.58334 28.4167L20.6667 21.9583L9.04168 10.3333ZM24.5417 14.2858C23.6375 14.2858 22.8108 14.6346 22.0358 15.3192L19.9821 17.3729L21.3771 18.7679L23.4308 16.7142C23.7538 16.3913 24.1154 16.2233 24.5417 16.2233C24.9679 16.2233 25.3554 16.3913 25.6783 16.7142L27.7708 18.7679L29.1271 17.4375L27.0604 15.3192C26.2983 14.6346 25.4458 14.2858 24.5417 14.2858Z" fill="#4A58A7"/>
</svg>
