<svg width="34" height="34" viewBox="0 0 34 34" fill="none" xmlns="http://www.w3.org/2000/svg">
<circle cx="16.7114" cy="17.0309" r="16.4536" fill="#FFCB47"/>
<path d="M16.8479 8.38346C16.8959 8.23572 17.1049 8.23572 17.1529 8.38346L19.0761 14.3023C19.0976 14.3684 19.1591 14.4131 19.2286 14.4131H25.452C25.6074 14.4131 25.672 14.6119 25.5463 14.7032L20.5114 18.3612C20.4552 18.4021 20.4317 18.4745 20.4532 18.5405L22.3763 24.4594C22.4243 24.6071 22.2552 24.73 22.1295 24.6387L17.0947 20.9806C17.0385 20.9398 16.9624 20.9398 16.9062 20.9806L11.8713 24.6387C11.7456 24.73 11.5765 24.6071 11.6245 24.4594L13.5477 18.5405C13.5691 18.4745 13.5456 18.4021 13.4894 18.3612L8.45456 14.7032C8.32888 14.6119 8.39347 14.4131 8.54882 14.4131H14.7722C14.8417 14.4131 14.9033 14.3684 14.9248 14.3023L16.8479 8.38346Z" fill="white"/>
</svg>
